<svg id="Layer_1" data-name="Layer 1" xmlns="http://www.w3.org/2000/svg" viewBox="0 0 46.86 75.12"><defs><style>.cls-1{fill:#f96262;}</style></defs><title>hottrack</title><path class="cls-1" d="M72.87,47.74c-.43-.55-.88-1.09-1.35-1.61L71.39,46c-1-3.21-1.82-7.32-3-9.1a1.38,1.38,0,0,0-.3.13c-.42,2.29-2.57,2.86-4.57,2.34a5.79,5.79,0,0,1-3.26-2.15,63,63,0,0,1-8.39-14c0-.06-.08-.11-.32-.19-.18,1.51-.35,3-.52,4.54a13.87,13.87,0,0,1-.23,2.15,5.12,5.12,0,0,1-4.13,3.9,5.23,5.23,0,0,1-5.2-1.79c-.15-.16-.29-.34-.38-.45-2.78,3.74-5.61,7.42-8.31,11.2-.27.38-.52.78-.76,1.18-.55.49-1.08,1-1.6,1.51.16-.89.32-1.78.55-2.65A32.73,32.73,0,0,1,35,34c2.17-3.58,2.14-3.08,3-4.85,1.48-3.09,1.42-4.64,2.29-7A18.73,18.73,0,0,1,46,14.45,23.94,23.94,0,0,0,44,22.19c0,.52-.49,7.34,1.47,7.89a1.56,1.56,0,0,0,1.21-.33c2-1.38.92-5.53.87-8.36,0-3,1-7.36,6.14-12.75a20.86,20.86,0,0,0-.45,6.52c.34,3.83-.07,4.42,5.42,13.24,1.42,2.26,3,4.42,4.56,6.61a1.72,1.72,0,0,0,2.35.65,2.21,2.21,0,0,0,.66-.61c.42-.6,1.52-4.35-1-10A23.59,23.59,0,0,0,61.46,19,38.2,38.2,0,0,1,71.63,36.13,37.2,37.2,0,0,1,72.87,47.74Z" transform="translate(-27.32 -8.64)"/><path class="cls-1" d="M30.48,45.27c-1.07,10.16,6.3,25.09,20.17,25.66C65.92,71.56,74,54.15,72.92,47.69a39.17,39.17,0,0,0-1-4.36c-1.54-6.36-1.85-9.09-2.9-9.19s-1.24,2-3.07,2.58c-1.57.46-3.14-.58-4.19-1.29-1.7-1.15-3.52-3-5.81-7.75s-2.62-7.46-3.55-7.42-1.23,2.23-4,8.07C47.54,30.11,47,31.08,46,31.39c-1.71.52-2.91-1.36-4.52-1.61C37.7,29.18,31.31,37.27,30.48,45.27Z" transform="translate(-27.32 -8.64)"/><path d="M56.71,57.62a7.12,7.12,0,0,0-.36-.67,6.1,6.1,0,0,0-.4-.59,7.3,7.3,0,0,0-.8-.87A6.63,6.63,0,0,0,52.42,54,6.62,6.62,0,0,0,47,55a6.56,6.56,0,0,0-2.43,3.32,6.66,6.66,0,0,0-.31,2v.24a6.55,6.55,0,0,0,13.06.35c0-.2,0-.39,0-.59A6.62,6.62,0,0,0,56.71,57.62Zm-6,.25a2.46,2.46,0,1,1-2.46,2.46A2.46,2.46,0,0,1,50.75,57.87Zm6-.25a7.12,7.12,0,0,0-.36-.67,6.1,6.1,0,0,0-.4-.59,7.3,7.3,0,0,0-.8-.87A6.63,6.63,0,0,0,52.42,54,6.62,6.62,0,0,0,47,55a6.56,6.56,0,0,0-2.43,3.32,6.66,6.66,0,0,0-.31,2v.24a6.55,6.55,0,0,0,13.06.35c0-.2,0-.39,0-.59A6.62,6.62,0,0,0,56.71,57.62Zm-6,.25a2.46,2.46,0,1,1-2.46,2.46A2.46,2.46,0,0,1,50.75,57.87Zm6-.25a7.12,7.12,0,0,0-.36-.67,6.1,6.1,0,0,0-.4-.59,7.3,7.3,0,0,0-.8-.87A6.63,6.63,0,0,0,52.42,54,6.62,6.62,0,0,0,47,55a6.56,6.56,0,0,0-2.43,3.32,6.66,6.66,0,0,0-.31,2v.24a6.55,6.55,0,0,0,13.06.35c0-.2,0-.39,0-.59A6.62,6.62,0,0,0,56.71,57.62Zm-6,.25a2.46,2.46,0,1,1-2.46,2.46A2.46,2.46,0,0,1,50.75,57.87Zm6-.25a7.12,7.12,0,0,0-.36-.67,6.1,6.1,0,0,0-.4-.59,7.3,7.3,0,0,0-.8-.87A6.63,6.63,0,0,0,52.42,54,6.62,6.62,0,0,0,47,55a6.56,6.56,0,0,0-2.43,3.32,6.66,6.66,0,0,0-.31,2v.24a6.55,6.55,0,0,0,13.06.35c0-.2,0-.39,0-.59A6.62,6.62,0,0,0,56.71,57.62Zm-6,.25a2.46,2.46,0,1,1-2.46,2.46A2.46,2.46,0,0,1,50.75,57.87Zm6-.25a7.12,7.12,0,0,0-.36-.67,6.1,6.1,0,0,0-.4-.59,7.3,7.3,0,0,0-.8-.87A6.63,6.63,0,0,0,52.42,54,6.62,6.62,0,0,0,47,55a6.56,6.56,0,0,0-2.43,3.32,6.66,6.66,0,0,0-.31,2v.24a6.55,6.55,0,0,0,13.06.35c0-.2,0-.39,0-.59A6.62,6.62,0,0,0,56.71,57.62Zm-6,.25a2.46,2.46,0,1,1-2.46,2.46A2.46,2.46,0,0,1,50.75,57.87Zm6-.25a7.12,7.12,0,0,0-.36-.67,6.1,6.1,0,0,0-.4-.59,7.3,7.3,0,0,0-.8-.87A6.63,6.63,0,0,0,52.42,54,6.62,6.62,0,0,0,47,55a6.56,6.56,0,0,0-2.43,3.32,6.66,6.66,0,0,0-.31,2v.24a6.55,6.55,0,0,0,13.06.35c0-.2,0-.39,0-.59A6.62,6.62,0,0,0,56.71,57.62Zm-6,.25a2.46,2.46,0,1,1-2.46,2.46A2.46,2.46,0,0,1,50.75,57.87ZM72.26,51l-.3-.66-.06-.13-.36-.72-.16-.29a22.44,22.44,0,0,0-2-3.1L69.27,46h0c-.35-.46-.73-.91-1.12-1.34L68,44.54a23.37,23.37,0,0,0-32.13-2.32l-.21.17-.36.31c-.46.4-.91.82-1.33,1.26-.22.22-.43.45-.64.68-.49.54-1,1.11-1.4,1.7h0c-.3.39-.58.79-.85,1.2,0,0,0,0,0,0a1.37,1.37,0,0,0-.13.2,23.21,23.21,0,0,0-3.66,12.55A23.43,23.43,0,1,0,72.26,51ZM50.75,79.68A19.37,19.37,0,0,1,31.4,60.33a19.17,19.17,0,0,1,1.11-6.45A19.37,19.37,0,0,1,46.65,41.42l.25-.05A18.83,18.83,0,0,1,50.75,41a19.35,19.35,0,0,1,0,38.7ZM56.35,57a6.1,6.1,0,0,0-.4-.59,7.3,7.3,0,0,0-.8-.87A6.63,6.63,0,0,0,52.42,54,6.62,6.62,0,0,0,47,55a6.56,6.56,0,0,0-2.43,3.32,6.66,6.66,0,0,0-.31,2v.24a6.55,6.55,0,0,0,13.06.35c0-.2,0-.39,0-.59a6.62,6.62,0,0,0-.58-2.71A7.12,7.12,0,0,0,56.35,57Zm-5.6.92a2.46,2.46,0,1,1-2.46,2.46A2.46,2.46,0,0,1,50.75,57.87Zm6-.25a7.12,7.12,0,0,0-.36-.67,6.1,6.1,0,0,0-.4-.59,7.3,7.3,0,0,0-.8-.87A6.63,6.63,0,0,0,52.42,54,6.62,6.62,0,0,0,47,55a6.56,6.56,0,0,0-2.43,3.32,6.66,6.66,0,0,0-.31,2v.24a6.55,6.55,0,0,0,13.06.35c0-.2,0-.39,0-.59A6.62,6.62,0,0,0,56.71,57.62Zm-6,.25a2.46,2.46,0,1,1-2.46,2.46A2.46,2.46,0,0,1,50.75,57.87Zm6-.25a7.12,7.12,0,0,0-.36-.67,6.1,6.1,0,0,0-.4-.59,7.3,7.3,0,0,0-.8-.87A6.63,6.63,0,0,0,52.42,54,6.62,6.62,0,0,0,47,55a6.56,6.56,0,0,0-2.43,3.32,6.66,6.66,0,0,0-.31,2v.24a6.55,6.55,0,0,0,13.06.35c0-.2,0-.39,0-.59A6.62,6.62,0,0,0,56.71,57.62Zm-6,.25a2.46,2.46,0,1,1-2.46,2.46A2.46,2.46,0,0,1,50.75,57.87Zm6-.25a7.12,7.12,0,0,0-.36-.67,6.1,6.1,0,0,0-.4-.59,7.3,7.3,0,0,0-.8-.87A6.63,6.63,0,0,0,52.42,54,6.62,6.62,0,0,0,47,55a6.56,6.56,0,0,0-2.43,3.32,6.66,6.66,0,0,0-.31,2v.24a6.55,6.55,0,0,0,13.06.35c0-.2,0-.39,0-.59A6.62,6.62,0,0,0,56.71,57.62Zm-6,.25a2.46,2.46,0,1,1-2.46,2.46A2.46,2.46,0,0,1,50.75,57.87Zm6-.25a7.12,7.12,0,0,0-.36-.67,6.1,6.1,0,0,0-.4-.59,7.3,7.3,0,0,0-.8-.87A6.63,6.63,0,0,0,52.42,54,6.62,6.62,0,0,0,47,55a6.56,6.56,0,0,0-2.43,3.32,6.66,6.66,0,0,0-.31,2v.24a6.55,6.55,0,0,0,13.06.35c0-.2,0-.39,0-.59A6.62,6.62,0,0,0,56.71,57.62Zm-6,.25a2.46,2.46,0,1,1-2.46,2.46A2.46,2.46,0,0,1,50.75,57.87Z" transform="translate(-27.32 -8.64)"/><path d="M61.16,56.23q-.12-.31-.27-.63a11.37,11.37,0,0,0-.58-1.09,11.72,11.72,0,0,0-2-2.46,11.51,11.51,0,0,0-1.52-1.16l-.31-.19a11.09,11.09,0,0,0-1.94-.91l-.27-.1a11.44,11.44,0,0,0-2.75-.52c-.24,0-.49,0-.74,0a11.28,11.28,0,0,0-4.24.83l-.26.12a11.13,11.13,0,0,0-3.18,2.1,8.21,8.21,0,0,0-.58.6,11.17,11.17,0,0,0-2.93,7.54,11.19,11.19,0,0,0,22.19,2,11.55,11.55,0,0,0,.19-2A11.16,11.16,0,0,0,61.16,56.23Zm-14.54,5.9a4.56,4.56,0,0,1,0-3.6,4.3,4.3,0,0,1,.5-.86,4.42,4.42,0,0,1,3.63-1.84l.51,0a4.5,4.5,0,0,1,4,4.48,4.45,4.45,0,0,1-1.53,3.38,4.5,4.5,0,0,1-6.2-.25A4.34,4.34,0,0,1,46.62,62.13Z" transform="translate(-27.32 -8.64)"/><path d="M50.75,77.49A17.1,17.1,0,1,1,67.85,60.4,17.11,17.11,0,0,1,50.75,77.49Zm0-34a17,17,0,1,0,17,17A17,17,0,0,0,50.75,43.44Z" transform="translate(-27.32 -8.64)"/></svg>