<svg id="Layer_1" data-name="Layer 1" xmlns="http://www.w3.org/2000/svg" viewBox="0 0 47.67 57.98"><defs><style>.cls-1{fill:#f96262;}</style></defs><title>NEWTRACKS</title><path d="M52.28,56.25a5.87,5.87,0,0,0-1.38-1.89,5.76,5.76,0,0,0-8.35.63,5.65,5.65,0,0,0-1,1.88,5.71,5.71,0,0,0-.28,1.77,5.78,5.78,0,1,0,11-2.39ZM47,60.81a2.18,2.18,0,1,1,2.17-2.17A2.17,2.17,0,0,1,47,60.81Zm5.26-4.56a5.87,5.87,0,0,0-1.38-1.89,5.76,5.76,0,0,0-8.35.63,5.65,5.65,0,0,0-1,1.88,5.71,5.71,0,0,0-.28,1.77,5.78,5.78,0,1,0,11-2.39ZM47,60.81a2.18,2.18,0,1,1,2.17-2.17A2.17,2.17,0,0,1,47,60.81Zm15.36-16a20.66,20.66,0,0,0-28.47-2.16l-.18.15a21.51,21.51,0,0,0-2.06,2,20.69,20.69,0,1,0,30.71,0ZM47,75.72A17.09,17.09,0,0,1,43.4,41.94l.22,0a17.35,17.35,0,0,1,3.4-.34,17.09,17.09,0,0,1,0,34.17ZM50.9,54.36a5.76,5.76,0,0,0-8.35.63,5.65,5.65,0,0,0-1,1.88,5.71,5.71,0,0,0-.28,1.77,5.78,5.78,0,1,0,11-2.39A5.87,5.87,0,0,0,50.9,54.36ZM47,60.81a2.18,2.18,0,1,1,2.17-2.17A2.17,2.17,0,0,1,47,60.81Zm5.26-4.56a5.87,5.87,0,0,0-1.38-1.89,5.76,5.76,0,0,0-8.35.63,5.65,5.65,0,0,0-1,1.88,5.71,5.71,0,0,0-.28,1.77,5.78,5.78,0,1,0,11-2.39ZM47,60.81a2.18,2.18,0,1,1,2.17-2.17A2.17,2.17,0,0,1,47,60.81Zm5.26-4.56a5.87,5.87,0,0,0-1.38-1.89,5.76,5.76,0,0,0-8.35.63,5.65,5.65,0,0,0-1,1.88,5.71,5.71,0,0,0-.28,1.77,5.78,5.78,0,1,0,11-2.39ZM47,60.81a2.18,2.18,0,1,1,2.17-2.17A2.17,2.17,0,0,1,47,60.81Z" transform="translate(-26.33 -21.34)"/><path d="M47,73.73A15.1,15.1,0,1,1,62.11,58.64,15.12,15.12,0,0,1,47,73.73Zm0-30.06a15,15,0,1,0,15,15A15,15,0,0,0,47,43.67Z" transform="translate(-26.33 -21.34)"/><path d="M56,54.47a9.69,9.69,0,0,0-2.31-3.14,9.38,9.38,0,0,0-1.33-1,9.68,9.68,0,0,0-2-1,9.83,9.83,0,0,0-2.67-.55l-.65,0a9.85,9.85,0,0,0-3.74.73,10,10,0,0,0-3,2A9.88,9.88,0,1,0,56.9,58.64,9.69,9.69,0,0,0,56,54.47Zm-5,4.17a4,4,0,0,1-8,0,3.81,3.81,0,0,1,.34-1.59,3.55,3.55,0,0,1,.43-.76A4,4,0,0,1,51,58.64Z" transform="translate(-26.33 -21.34)"/><polygon class="cls-1" points="33.75 8.95 38.67 17.94 47.67 22.86 38.67 27.78 33.75 36.77 28.83 27.78 19.84 22.86 28.83 17.94 33.75 8.95"/><polygon class="cls-1" points="31.27 0 32.85 2.89 35.74 4.47 32.85 6.05 31.27 8.95 29.69 6.05 26.79 4.47 29.69 2.89 31.27 0"/><polygon class="cls-1" points="21.45 10.19 22.33 11.79 23.94 12.67 22.33 13.55 21.45 15.16 20.57 13.55 18.97 12.67 20.57 11.79 21.45 10.19"/></svg>