<?xml version="1.0" encoding="utf-8"?>
<!-- Generator: Adobe Illustrator 23.0.4, SVG Export Plug-In . SVG Version: 6.00 Build 0)  -->
<svg version="1.1" id="Layer_1" xmlns="http://www.w3.org/2000/svg" xmlns:xlink="http://www.w3.org/1999/xlink" x="0px" y="0px"
	 viewBox="0 0 100 100" style="enable-background:new 0 0 100 100;" xml:space="preserve">
<style type="text/css">
	.st0{display:none;}
	.st1{display:inline;}
	.st2{fill:#F96262;}
	.st3{fill:#1A1A1A;}
</style>
<g class="st0">
	<g class="st1">
		<g>
			<g>
				<path d="M52.28,56.25c-0.33-0.72-0.8-1.36-1.38-1.88c-1.03-0.93-2.39-1.5-3.88-1.5c-1.8,0-3.41,0.83-4.47,2.13
					c-0.45,0.55-0.8,1.19-1.03,1.88c-0.18,0.56-0.28,1.15-0.28,1.77c0,3.19,2.59,5.78,5.78,5.78c3.19,0,5.78-2.59,5.78-5.78
					C52.8,57.78,52.61,56.98,52.28,56.25z M47.02,60.81c-1.2,0-2.17-0.98-2.17-2.17c0-1.2,0.98-2.17,2.17-2.17
					c1.2,0,2.17,0.98,2.17,2.17C49.19,59.84,48.22,60.81,47.02,60.81z M52.28,56.25c-0.33-0.72-0.8-1.36-1.38-1.88
					c-1.03-0.93-2.39-1.5-3.88-1.5c-1.8,0-3.41,0.83-4.47,2.13c-0.45,0.55-0.8,1.19-1.03,1.88c-0.18,0.56-0.28,1.15-0.28,1.77
					c0,3.19,2.59,5.78,5.78,5.78c3.19,0,5.78-2.59,5.78-5.78C52.8,57.78,52.61,56.98,52.28,56.25z M47.02,60.81
					c-1.2,0-2.17-0.98-2.17-2.17c0-1.2,0.98-2.17,2.17-2.17c1.2,0,2.17,0.98,2.17,2.17C49.19,59.84,48.22,60.81,47.02,60.81z
					 M62.38,44.8c-3.79-4.2-9.27-6.85-15.36-6.85c-4.97,0-9.54,1.76-13.11,4.69c-0.06,0.05-0.12,0.1-0.18,0.15
					c-0.73,0.61-1.42,1.28-2.06,1.99c-3.32,3.67-5.34,8.53-5.34,13.86c0,11.41,9.28,20.69,20.69,20.69s20.69-9.28,20.69-20.69
					C67.71,53.32,65.69,48.47,62.38,44.8z M47.02,75.72c-9.42,0-17.08-7.66-17.08-17.08c0-3.49,1.05-6.75,2.86-9.46
					c2.42-3.63,6.2-6.29,10.6-7.24c0.07-0.02,0.15-0.03,0.22-0.05c1.1-0.22,2.23-0.34,3.4-0.34c5.9,0,11.12,3.01,14.19,7.58
					c1.83,2.72,2.9,5.99,2.9,9.51C64.1,68.06,56.44,75.72,47.02,75.72z M50.9,54.36c-1.03-0.93-2.39-1.5-3.88-1.5
					c-1.8,0-3.41,0.83-4.47,2.13c-0.45,0.55-0.8,1.19-1.03,1.88c-0.18,0.56-0.28,1.15-0.28,1.77c0,3.19,2.59,5.78,5.78,5.78
					c3.19,0,5.78-2.59,5.78-5.78c0-0.85-0.19-1.66-0.52-2.39C51.95,55.53,51.48,54.89,50.9,54.36z M47.02,60.81
					c-1.2,0-2.17-0.98-2.17-2.17c0-1.2,0.98-2.17,2.17-2.17c1.2,0,2.17,0.98,2.17,2.17C49.19,59.84,48.22,60.81,47.02,60.81z
					 M52.28,56.25c-0.33-0.72-0.8-1.36-1.38-1.88c-1.03-0.93-2.39-1.5-3.88-1.5c-1.8,0-3.41,0.83-4.47,2.13
					c-0.45,0.55-0.8,1.19-1.03,1.88c-0.18,0.56-0.28,1.15-0.28,1.77c0,3.19,2.59,5.78,5.78,5.78c3.19,0,5.78-2.59,5.78-5.78
					C52.8,57.78,52.61,56.98,52.28,56.25z M47.02,60.81c-1.2,0-2.17-0.98-2.17-2.17c0-1.2,0.98-2.17,2.17-2.17
					c1.2,0,2.17,0.98,2.17,2.17C49.19,59.84,48.22,60.81,47.02,60.81z M52.28,56.25c-0.33-0.72-0.8-1.36-1.38-1.88
					c-1.03-0.93-2.39-1.5-3.88-1.5c-1.8,0-3.41,0.83-4.47,2.13c-0.45,0.55-0.8,1.19-1.03,1.88c-0.18,0.56-0.28,1.15-0.28,1.77
					c0,3.19,2.59,5.78,5.78,5.78c3.19,0,5.78-2.59,5.78-5.78C52.8,57.78,52.61,56.98,52.28,56.25z M47.02,60.81
					c-1.2,0-2.17-0.98-2.17-2.17c0-1.2,0.98-2.17,2.17-2.17c1.2,0,2.17,0.98,2.17,2.17C49.19,59.84,48.22,60.81,47.02,60.81z"/>
			</g>
		</g>
		<g>
			<path d="M47.02,73.73c-8.32,0-15.1-6.77-15.1-15.1s6.77-15.1,15.1-15.1s15.1,6.77,15.1,15.1S55.34,73.73,47.02,73.73z
				 M47.02,43.67c-8.26,0-14.97,6.72-14.97,14.97s6.72,14.97,14.97,14.97s14.97-6.72,14.97-14.97S55.27,43.67,47.02,43.67z"/>
		</g>
		<g>
			<g>
				<path d="M55.97,54.47c-0.56-1.2-1.35-2.26-2.31-3.14c-0.41-0.38-0.86-0.72-1.34-1.02c-0.62-0.39-1.28-0.72-1.98-0.97
					c-0.84-0.3-1.74-0.49-2.67-0.55c-0.22-0.01-0.43-0.02-0.65-0.02c-1.32,0-2.59,0.26-3.74,0.73c-1.13,0.46-2.16,1.13-3.04,1.96
					c-1.05,0.99-1.88,2.2-2.42,3.56c-0.44,1.12-0.68,2.34-0.68,3.62c0,5.46,4.42,9.88,9.88,9.88s9.88-4.42,9.88-9.88
					C56.9,57.15,56.57,55.73,55.97,54.47z M50.99,58.64c0,2.2-1.78,3.98-3.98,3.98c-2.2,0-3.98-1.78-3.98-3.98
					c0-0.57,0.12-1.1,0.33-1.59c0.12-0.27,0.26-0.52,0.44-0.76c0.72-0.99,1.89-1.63,3.21-1.63c0.69,0,1.34,0.18,1.91,0.49
					c0.71,0.39,1.28,0.98,1.64,1.7C50.84,57.38,50.99,57.99,50.99,58.64z"/>
			</g>
		</g>
	</g>
	<g class="st1">
		<polygon class="st2" points="60.09,30.29 65,39.28 74,44.2 65,49.12 60.09,58.12 55.17,49.12 46.17,44.2 55.17,39.28 		"/>
	</g>
	<g class="st1">
		<polygon class="st2" points="57.6,21.34 59.18,24.24 62.07,25.82 59.18,27.4 57.6,30.29 56.02,27.4 53.13,25.82 56.02,24.24 		"/>
	</g>
	<g class="st1">
		<polygon class="st2" points="47.79,31.53 48.66,33.14 50.27,34.02 48.66,34.9 47.79,36.5 46.91,34.9 45.3,34.02 46.91,33.14 		"/>
	</g>
</g>
<path class="st0" d="M71.1,55.58l-4.51-2.61c0.17-0.97,0.26-1.96,0.26-2.98s-0.09-2.01-0.26-2.98l4.51-2.61
	c0.86-0.5,1.16-1.61,0.66-2.47l-3.91-6.77c-0.5-0.86-1.61-1.16-2.47-0.66l-4.52,2.61c-1.51-1.28-3.25-2.29-5.14-2.98v-5.21
	c0-0.99-0.81-1.81-1.81-1.81h-7.82c-0.99,0-1.81,0.81-1.81,1.81v5.21c-1.89,0.69-3.63,1.7-5.14,2.98l-4.52-2.61
	c-0.86-0.5-1.97-0.2-2.47,0.66l-3.91,6.77c-0.5,0.86-0.2,1.97,0.66,2.47l4.51,2.61c-0.17,0.97-0.26,1.96-0.26,2.98
	s0.09,2.01,0.26,2.98l-4.51,2.61c-0.86,0.5-1.16,1.61-0.66,2.47l3.91,6.77c0.5,0.86,1.61,1.16,2.47,0.66l4.52-2.61
	c1.51,1.28,3.25,2.29,5.14,2.98v5.21c0,0.99,0.81,1.81,1.81,1.81h7.82c0.99,0,1.81-0.81,1.81-1.81v-5.21
	c1.89-0.69,3.63-1.7,5.14-2.98l4.52,2.61c0.86,0.5,1.97,0.2,2.47-0.66l3.91-6.77C72.26,57.19,71.96,56.08,71.1,55.58z M50,56.47
	c-3.57,0-6.47-2.9-6.47-6.47s2.9-6.47,6.47-6.47s6.47,2.9,6.47,6.47S53.57,56.47,50,56.47z"/>
<polygon class="st3" points="30.65,53.56 46.33,44.51 62,35.46 62,53.56 62,71.66 46.33,62.61 "/>
</svg>
