<?xml version="1.0" encoding="utf-8"?>
<!-- Generator: Adobe Illustrator 23.0.4, SVG Export Plug-In . SVG Version: 6.00 Build 0)  -->
<svg version="1.1" id="Layer_1" xmlns="http://www.w3.org/2000/svg" xmlns:xlink="http://www.w3.org/1999/xlink" x="0px" y="0px"
	 viewBox="0 0 100 100" style="enable-background:new 0 0 100 100;" xml:space="preserve">
<style type="text/css">
	.st0{display:none;}
	.st1{display:inline;}
	.st2{fill:#F96262;}
	.st3{display:none;fill:#1A1A1A;}
	.st4{display:inline;fill:#333333;}
	.st5{fill:#333333;}
	.st6{fill:none;}
</style>
<g class="st0">
	<g class="st1">
		<g>
			<g>
				<path d="M52.28,56.25c-0.33-0.72-0.8-1.36-1.38-1.88c-1.03-0.93-2.39-1.5-3.88-1.5c-1.8,0-3.41,0.83-4.47,2.13
					c-0.45,0.55-0.8,1.19-1.03,1.88c-0.18,0.56-0.28,1.15-0.28,1.77c0,3.19,2.59,5.78,5.78,5.78c3.19,0,5.78-2.59,5.78-5.78
					C52.8,57.78,52.61,56.98,52.28,56.25z M47.02,60.81c-1.2,0-2.17-0.98-2.17-2.17c0-1.2,0.98-2.17,2.17-2.17
					c1.2,0,2.17,0.98,2.17,2.17C49.19,59.84,48.22,60.81,47.02,60.81z M52.28,56.25c-0.33-0.72-0.8-1.36-1.38-1.88
					c-1.03-0.93-2.39-1.5-3.88-1.5c-1.8,0-3.41,0.83-4.47,2.13c-0.45,0.55-0.8,1.19-1.03,1.88c-0.18,0.56-0.28,1.15-0.28,1.77
					c0,3.19,2.59,5.78,5.78,5.78c3.19,0,5.78-2.59,5.78-5.78C52.8,57.78,52.61,56.98,52.28,56.25z M47.02,60.81
					c-1.2,0-2.17-0.98-2.17-2.17c0-1.2,0.98-2.17,2.17-2.17c1.2,0,2.17,0.98,2.17,2.17C49.19,59.84,48.22,60.81,47.02,60.81z
					 M62.38,44.8c-3.79-4.2-9.27-6.85-15.36-6.85c-4.97,0-9.54,1.76-13.11,4.69c-0.06,0.05-0.12,0.1-0.18,0.15
					c-0.73,0.61-1.42,1.28-2.06,1.99c-3.32,3.67-5.34,8.53-5.34,13.86c0,11.41,9.28,20.69,20.69,20.69s20.69-9.28,20.69-20.69
					C67.71,53.32,65.69,48.47,62.38,44.8z M47.02,75.72c-9.42,0-17.08-7.66-17.08-17.08c0-3.49,1.05-6.75,2.86-9.46
					c2.42-3.63,6.2-6.29,10.6-7.24c0.07-0.02,0.15-0.03,0.22-0.05c1.1-0.22,2.23-0.34,3.4-0.34c5.9,0,11.12,3.01,14.19,7.58
					c1.83,2.72,2.9,5.99,2.9,9.51C64.1,68.06,56.44,75.72,47.02,75.72z M50.9,54.36c-1.03-0.93-2.39-1.5-3.88-1.5
					c-1.8,0-3.41,0.83-4.47,2.13c-0.45,0.55-0.8,1.19-1.03,1.88c-0.18,0.56-0.28,1.15-0.28,1.77c0,3.19,2.59,5.78,5.78,5.78
					c3.19,0,5.78-2.59,5.78-5.78c0-0.85-0.19-1.66-0.52-2.39C51.95,55.53,51.48,54.89,50.9,54.36z M47.02,60.81
					c-1.2,0-2.17-0.98-2.17-2.17c0-1.2,0.98-2.17,2.17-2.17c1.2,0,2.17,0.98,2.17,2.17C49.19,59.84,48.22,60.81,47.02,60.81z
					 M52.28,56.25c-0.33-0.72-0.8-1.36-1.38-1.88c-1.03-0.93-2.39-1.5-3.88-1.5c-1.8,0-3.41,0.83-4.47,2.13
					c-0.45,0.55-0.8,1.19-1.03,1.88c-0.18,0.56-0.28,1.15-0.28,1.77c0,3.19,2.59,5.78,5.78,5.78c3.19,0,5.78-2.59,5.78-5.78
					C52.8,57.78,52.61,56.98,52.28,56.25z M47.02,60.81c-1.2,0-2.17-0.98-2.17-2.17c0-1.2,0.98-2.17,2.17-2.17
					c1.2,0,2.17,0.98,2.17,2.17C49.19,59.84,48.22,60.81,47.02,60.81z M52.28,56.25c-0.33-0.72-0.8-1.36-1.38-1.88
					c-1.03-0.93-2.39-1.5-3.88-1.5c-1.8,0-3.41,0.83-4.47,2.13c-0.45,0.55-0.8,1.19-1.03,1.88c-0.18,0.56-0.28,1.15-0.28,1.77
					c0,3.19,2.59,5.78,5.78,5.78c3.19,0,5.78-2.59,5.78-5.78C52.8,57.78,52.61,56.98,52.28,56.25z M47.02,60.81
					c-1.2,0-2.17-0.98-2.17-2.17c0-1.2,0.98-2.17,2.17-2.17c1.2,0,2.17,0.98,2.17,2.17C49.19,59.84,48.22,60.81,47.02,60.81z"/>
			</g>
		</g>
		<g>
			<path d="M47.02,73.73c-8.32,0-15.1-6.77-15.1-15.1s6.77-15.1,15.1-15.1s15.1,6.77,15.1,15.1S55.34,73.73,47.02,73.73z
				 M47.02,43.67c-8.26,0-14.97,6.72-14.97,14.97s6.72,14.97,14.97,14.97s14.97-6.72,14.97-14.97S55.27,43.67,47.02,43.67z"/>
		</g>
		<g>
			<g>
				<path d="M55.97,54.47c-0.56-1.2-1.35-2.26-2.31-3.14c-0.41-0.38-0.86-0.72-1.34-1.02c-0.62-0.39-1.28-0.72-1.98-0.97
					c-0.84-0.3-1.74-0.49-2.67-0.55c-0.22-0.01-0.43-0.02-0.65-0.02c-1.32,0-2.59,0.26-3.74,0.73c-1.13,0.46-2.16,1.13-3.04,1.96
					c-1.05,0.99-1.88,2.2-2.42,3.56c-0.44,1.12-0.68,2.34-0.68,3.62c0,5.46,4.42,9.88,9.88,9.88s9.88-4.42,9.88-9.88
					C56.9,57.15,56.57,55.73,55.97,54.47z M50.99,58.64c0,2.2-1.78,3.98-3.98,3.98c-2.2,0-3.98-1.78-3.98-3.98
					c0-0.57,0.12-1.1,0.33-1.59c0.12-0.27,0.26-0.52,0.44-0.76c0.72-0.99,1.89-1.63,3.21-1.63c0.69,0,1.34,0.18,1.91,0.49
					c0.71,0.39,1.28,0.98,1.64,1.7C50.84,57.38,50.99,57.99,50.99,58.64z"/>
			</g>
		</g>
	</g>
	<g class="st1">
		<polygon class="st2" points="60.09,30.29 65,39.28 74,44.2 65,49.12 60.09,58.12 55.17,49.12 46.17,44.2 55.17,39.28 		"/>
	</g>
	<g class="st1">
		<polygon class="st2" points="57.6,21.34 59.18,24.24 62.07,25.82 59.18,27.4 57.6,30.29 56.02,27.4 53.13,25.82 56.02,24.24 		"/>
	</g>
	<g class="st1">
		<polygon class="st2" points="47.79,31.53 48.66,33.14 50.27,34.02 48.66,34.9 47.79,36.5 46.91,34.9 45.3,34.02 46.91,33.14 		"/>
	</g>
</g>
<path class="st0" d="M71.1,55.58l-4.51-2.61c0.17-0.97,0.26-1.96,0.26-2.98s-0.09-2.01-0.26-2.98l4.51-2.61
	c0.86-0.5,1.16-1.61,0.66-2.47l-3.91-6.77c-0.5-0.86-1.61-1.16-2.47-0.66l-4.52,2.61c-1.51-1.28-3.25-2.29-5.14-2.98v-5.21
	c0-0.99-0.81-1.81-1.81-1.81h-7.82c-0.99,0-1.81,0.81-1.81,1.81v5.21c-1.89,0.69-3.63,1.7-5.14,2.98l-4.52-2.61
	c-0.86-0.5-1.97-0.2-2.47,0.66l-3.91,6.77c-0.5,0.86-0.2,1.97,0.66,2.47l4.51,2.61c-0.17,0.97-0.26,1.96-0.26,2.98
	s0.09,2.01,0.26,2.98l-4.51,2.61c-0.86,0.5-1.16,1.61-0.66,2.47l3.91,6.77c0.5,0.86,1.61,1.16,2.47,0.66l4.52-2.61
	c1.51,1.28,3.25,2.29,5.14,2.98v5.21c0,0.99,0.81,1.81,1.81,1.81h7.82c0.99,0,1.81-0.81,1.81-1.81v-5.21
	c1.89-0.69,3.63-1.7,5.14-2.98l4.52,2.61c0.86,0.5,1.97,0.2,2.47-0.66l3.91-6.77C72.26,57.19,71.96,56.08,71.1,55.58z M50,56.47
	c-3.57,0-6.47-2.9-6.47-6.47s2.9-6.47,6.47-6.47s6.47,2.9,6.47,6.47S53.57,56.47,50,56.47z"/>
<polygon class="st3" points="30.65,53.56 46.33,44.51 62,35.46 62,53.56 62,71.66 46.33,62.61 "/>
<g class="st0">
	<rect x="32" y="34" class="st4" width="15" height="32"/>
	<rect x="52" y="34" class="st4" width="15" height="32"/>
</g>
<g class="st0">
	<g class="st1">
		<path class="st5" d="M32.04,42.59c-0.25-0.21-0.5-0.36-0.74-0.47c-0.25-0.1-0.49-0.15-0.72-0.15c-0.29,0-0.53,0.07-0.72,0.22
			c-0.19,0.15-0.28,0.33-0.28,0.57c0,0.16,0.05,0.29,0.14,0.4c0.09,0.1,0.21,0.2,0.37,0.27c0.15,0.08,0.32,0.14,0.51,0.2
			c0.19,0.06,0.38,0.12,0.56,0.18c0.74,0.26,1.29,0.6,1.63,1.03c0.34,0.43,0.52,0.99,0.52,1.69c0,0.47-0.08,0.89-0.23,1.27
			c-0.15,0.38-0.37,0.7-0.66,0.97s-0.65,0.48-1.07,0.63c-0.42,0.15-0.9,0.22-1.43,0.22c-1.11,0-2.13-0.34-3.07-1.03l0.97-1.91
			c0.34,0.31,0.68,0.55,1.01,0.7c0.33,0.15,0.66,0.23,0.99,0.23c0.37,0,0.65-0.09,0.83-0.27c0.18-0.18,0.27-0.38,0.27-0.6
			c0-0.14-0.02-0.26-0.07-0.36c-0.05-0.1-0.12-0.19-0.23-0.28c-0.11-0.08-0.25-0.16-0.42-0.24c-0.17-0.07-0.38-0.15-0.63-0.24
			c-0.29-0.1-0.58-0.2-0.86-0.32c-0.28-0.12-0.53-0.27-0.75-0.47c-0.22-0.19-0.4-0.44-0.53-0.73c-0.14-0.29-0.2-0.67-0.2-1.12
			c0-0.45,0.07-0.86,0.21-1.23c0.14-0.37,0.34-0.68,0.6-0.94c0.26-0.26,0.58-0.47,0.95-0.61c0.38-0.15,0.79-0.22,1.26-0.22
			c0.43,0,0.89,0.06,1.36,0.19c0.47,0.12,0.92,0.31,1.36,0.55L32.04,42.59z"/>
		<path class="st5" d="M34.34,44.81c0-0.68,0.12-1.31,0.36-1.89c0.24-0.58,0.57-1.09,1-1.53c0.43-0.44,0.93-0.78,1.53-1.02
			c0.59-0.25,1.24-0.37,1.95-0.37c0.7,0,1.35,0.12,1.95,0.37c0.6,0.25,1.11,0.59,1.54,1.02c0.43,0.44,0.76,0.95,1,1.53
			c0.24,0.58,0.36,1.22,0.36,1.89s-0.12,1.31-0.36,1.89c-0.24,0.58-0.57,1.09-1,1.53c-0.43,0.44-0.94,0.78-1.54,1.02
			c-0.6,0.25-1.25,0.37-1.95,0.37c-0.71,0-1.36-0.12-1.95-0.37c-0.59-0.25-1.1-0.59-1.53-1.02c-0.43-0.44-0.76-0.95-1-1.53
			C34.46,46.12,34.34,45.49,34.34,44.81z M36.72,44.81c0,0.36,0.07,0.7,0.2,1c0.13,0.31,0.31,0.57,0.53,0.8
			c0.22,0.23,0.49,0.4,0.78,0.53c0.3,0.12,0.61,0.19,0.95,0.19c0.33,0,0.65-0.06,0.95-0.19c0.3-0.12,0.56-0.3,0.79-0.53
			c0.23-0.23,0.41-0.49,0.54-0.8c0.13-0.31,0.2-0.64,0.2-1s-0.07-0.7-0.2-1s-0.31-0.57-0.54-0.8c-0.23-0.23-0.49-0.4-0.79-0.53
			c-0.3-0.12-0.61-0.19-0.95-0.19c-0.33,0-0.65,0.06-0.95,0.19c-0.3,0.13-0.56,0.3-0.78,0.53c-0.22,0.23-0.4,0.49-0.53,0.8
			C36.78,44.12,36.72,44.45,36.72,44.81z"/>
		<path class="st5" d="M47.74,40.25v4.96c0,0.27,0.01,0.54,0.03,0.82c0.02,0.28,0.08,0.53,0.17,0.76c0.1,0.23,0.25,0.41,0.46,0.55
			c0.21,0.14,0.5,0.21,0.88,0.21c0.38,0,0.67-0.07,0.88-0.21c0.2-0.14,0.36-0.32,0.46-0.55c0.1-0.23,0.16-0.48,0.18-0.76
			c0.02-0.28,0.03-0.55,0.03-0.82v-4.96h2.26v5.28c0,1.42-0.31,2.45-0.93,3.11c-0.62,0.65-1.58,0.98-2.87,0.98
			c-1.29,0-2.25-0.33-2.88-0.98c-0.63-0.65-0.94-1.69-0.94-3.11v-5.28H47.74z"/>
		<path class="st5" d="M54.92,49.37v-9.12h2.27l4.2,5.57v-5.57h2.26v9.12h-2.26l-4.2-5.57v5.57H54.92z"/>
		<path class="st5" d="M65.49,40.25h3.36c0.6,0,1.15,0.13,1.68,0.38c0.52,0.25,0.98,0.58,1.37,1c0.39,0.42,0.7,0.9,0.92,1.45
			c0.22,0.55,0.34,1.13,0.34,1.74c0,0.6-0.11,1.17-0.33,1.72c-0.22,0.55-0.53,1.04-0.92,1.46c-0.39,0.42-0.85,0.75-1.37,1
			c-0.52,0.25-1.08,0.38-1.69,0.38h-3.36V40.25z M67.76,47.36h0.52c0.39,0,0.75-0.06,1.06-0.19c0.31-0.13,0.57-0.31,0.78-0.53
			c0.21-0.23,0.37-0.49,0.49-0.8c0.11-0.31,0.17-0.65,0.17-1.02c0-0.36-0.06-0.7-0.17-1.02c-0.12-0.31-0.28-0.58-0.49-0.81
			c-0.21-0.23-0.47-0.4-0.78-0.53c-0.31-0.13-0.66-0.19-1.04-0.19h-0.52V47.36z"/>
	</g>
	<g class="st1">
		<path class="st5" d="M44.81,60.4h-2.83l-2.17-3.51v3.51h-2.27v-9.12h3.54c0.49,0,0.91,0.07,1.28,0.22
			c0.36,0.15,0.66,0.35,0.9,0.61c0.24,0.26,0.41,0.56,0.53,0.89c0.12,0.34,0.18,0.7,0.18,1.09c0,0.69-0.16,1.26-0.48,1.69
			c-0.32,0.43-0.79,0.72-1.42,0.88L44.81,60.4z M39.81,55.35h0.43c0.45,0,0.79-0.1,1.03-0.29c0.24-0.19,0.36-0.47,0.36-0.83
			c0-0.36-0.12-0.64-0.36-0.83c-0.24-0.19-0.58-0.29-1.03-0.29h-0.43V55.35z"/>
		<path class="st5" d="M51.12,58.81h-3.25l-0.52,1.58h-2.42l3.33-9.12h2.48l3.33,9.12h-2.42L51.12,58.81z M50.52,57.01l-1.02-3.04
			l-1.02,3.04H50.52z"/>
		<path class="st5" d="M61.04,54.33c-0.53-0.67-1.18-1-1.95-1c-0.34,0-0.66,0.06-0.95,0.19c-0.29,0.13-0.54,0.3-0.75,0.53
			c-0.21,0.22-0.37,0.49-0.49,0.79c-0.12,0.31-0.18,0.64-0.18,0.99c0,0.36,0.06,0.7,0.18,1c0.12,0.31,0.29,0.57,0.5,0.8
			c0.21,0.23,0.46,0.4,0.75,0.53c0.29,0.13,0.6,0.19,0.93,0.19c0.73,0,1.38-0.32,1.96-0.97v2.81l-0.23,0.08
			c-0.35,0.13-0.67,0.22-0.97,0.28c-0.3,0.06-0.6,0.09-0.89,0.09c-0.6,0-1.18-0.12-1.73-0.36c-0.55-0.24-1.04-0.57-1.46-1
			c-0.42-0.43-0.76-0.94-1.02-1.54c-0.26-0.59-0.38-1.24-0.38-1.94c0-0.7,0.13-1.34,0.38-1.93c0.25-0.58,0.59-1.09,1.01-1.51
			c0.42-0.42,0.91-0.75,1.47-0.99c0.56-0.24,1.14-0.36,1.75-0.36c0.35,0,0.69,0.04,1.03,0.11c0.34,0.08,0.69,0.2,1.06,0.36V54.33z"
			/>
		<path class="st5" d="M65.13,55.04l2.77-3.76h2.81l-3.47,4.32l3.79,4.8h-2.95l-2.96-3.95v3.95h-2.27v-9.12h2.27V55.04z"/>
		<g>
			<path class="st5" d="M32.14,57.87c0-2.24,0-4.39,0-6.58c1.25,0,2.43,0,3.66,0c0,0.61,0,1.2,0,1.88c-0.86,0-1.73,0-2.69,0
				c0,1.13,0,2.16,0,3.2c0,0.82,0,1.64,0,2.46c0,1.1-0.41,1.63-1.43,1.9c-0.76,0.2-1.47,0.09-2.11-0.38
				c-0.8-0.59-0.8-1.56-0.01-2.18C30.31,57.57,31.15,57.61,32.14,57.87z"/>
		</g>
	</g>
</g>
<g id="Group_36" transform="translate(-316 -68)" class="st0">
	<circle id="Ellipse_8" class="st4" cx="365.73" cy="111.96" r="3.96"/>
	<path id="Rectangle_44" class="st4" d="M365.73,117.37L365.73,117.37c5.37,0,9.73,4.36,9.73,9.73l0,0v0.36l0,0H356l0,0v-0.36
		C356,121.73,360.36,117.37,365.73,117.37C365.73,117.37,365.73,117.37,365.73,117.37z"/>
</g>
<g id="Group_37" transform="translate(-107.225 265.966) rotate(-81)">
	<g id="Ellipse_9" transform="translate(273.056 65.314) rotate(49)">
		<g>
			<circle class="st6" cx="21.27" cy="52.76" r="17.49"/>
		</g>
		<g>
			<path class="st5" d="M12.03,67.6c-4.95-3.09-8.25-8.59-8.25-14.84c0-4.67,1.82-9.06,5.12-12.37c3.3-3.3,7.69-5.12,12.36-5.12l0,0
				c4.67,0,9.06,1.82,12.37,5.12c3.3,3.3,5.12,7.7,5.12,12.37c0,4.67-1.82,9.06-5.12,12.37c-3.3,3.3-7.69,5.12-12.36,5.12
				C17.88,70.25,14.72,69.28,12.03,67.6z M27.5,42.75c-1.85-1.16-3.99-1.77-6.22-1.77l0,0c-3.15,0-6.1,1.22-8.33,3.45
				c-2.22,2.22-3.45,5.18-3.45,8.32c0,6.5,5.29,11.77,11.78,11.78c3.15,0,6.1-1.22,8.33-3.45c2.22-2.22,3.45-5.18,3.45-8.32
				c0-3.15-1.22-6.1-3.45-8.33C28.96,43.79,28.25,43.23,27.5,42.75z"/>
		</g>
	</g>
	<g id="Line_5">
		<path class="st5" d="M213.46,142.3c-0.22-1.41,0.26-2.9,1.42-3.91l17.08-14.85c1.78-1.55,4.49-1.36,6.05,0.42
			c1.55,1.78,1.36,4.49-0.42,6.05l-17.08,14.85c-1.78,1.55-4.49,1.36-6.05-0.42C213.91,143.81,213.58,143.07,213.46,142.3z"/>
	</g>
</g>
</svg>
